<svg xmlns="http://www.w3.org/2000/svg" width="500" height="500" viewBox="0 0 500 500">
<g>
<path d="M 436.00 354.00 C436.00,355.26 65.37,355.40 64.58,354.14 C64.29,353.66 66.51,347.31 69.52,340.03 C72.54,332.75 75.00,325.99 75.00,325.02 C75.00,324.04 72.55,318.35 69.55,312.37 L 64.10 301.50 L 157.05 301.24 C208.17,301.10 291.84,301.10 342.98,301.24 L 435.96 301.50 L 428.38 313.26 L 420.80 325.03 L 428.40 339.01 C432.58,346.70 436.00,353.44 436.00,354.00 ZM 184.38 338.13 C193.03,342.14 202.11,336.53 202.36,327.03 C202.49,322.22 199.79,318.20 194.74,315.69 C189.82,313.24 184.52,314.29 180.25,318.56 C177.47,321.33 177.00,322.51 177.00,326.68 C177.00,332.65 178.89,335.58 184.38,338.13 ZM 238.00 327.00 C238.00,338.33 238.11,339.00 240.00,339.00 C241.67,339.00 242.00,338.33 242.00,335.00 C242.00,331.30 242.21,331.00 244.75,331.01 C246.91,331.01 247.99,331.88 249.78,335.01 C251.49,338.00 252.69,339.00 254.57,339.00 L 257.08 339.00 L 254.48 334.56 L 251.88 330.12 L 253.94 328.06 C256.65,325.35 256.68,319.68 254.00,317.00 C252.38,315.38 250.67,315.00 245.00,315.00 L 238.00 315.00 ZM 263.00 327.00 L 263.00 339.00 L 265.50 339.00 C267.95,339.00 268.00,338.84 268.00,331.42 C268.00,327.25 268.41,323.98 268.90,324.17 C269.40,324.35 272.35,327.76 275.46,331.75 C279.02,336.32 281.83,339.00 283.06,339.00 C284.87,339.00 285.00,338.22 285.00,327.00 C285.00,315.67 284.89,315.00 283.00,315.00 C281.21,315.00 281.00,315.67 281.00,321.42 C281.00,331.84 280.51,331.95 273.70,323.00 C269.19,317.08 267.01,315.00 265.30,315.00 C263.03,315.00 263.00,315.14 263.00,327.00 ZM 291.17 338.10 C290.98,338.59 291.89,339.00 293.18,339.00 C294.65,339.00 295.89,338.16 296.51,336.75 C297.34,334.86 298.40,334.45 303.13,334.20 C308.44,333.92 308.80,334.05 309.40,336.45 C309.87,338.33 310.69,339.00 312.52,339.00 C313.88,339.00 315.00,338.86 315.00,338.69 C315.00,338.52 312.78,333.23 310.07,326.94 C305.97,317.44 304.75,315.45 302.82,315.22 C300.74,314.97 300.04,316.07 296.00,326.07 C293.52,332.19 291.35,337.60 291.17,338.10 ZM 214.31 338.05 C218.35,340.51 220.67,340.50 224.77,338.00 C229.03,335.40 230.00,332.60 230.00,322.93 C230.00,315.14 229.96,315.00 227.50,315.00 C225.03,315.00 225.00,315.11 225.00,323.31 C225.00,332.68 223.84,335.25 219.58,335.25 C214.84,335.25 213.54,332.87 213.15,323.46 C212.83,315.94 212.58,315.00 210.90,315.00 C209.18,315.00 209.00,315.82 209.00,323.57 C209.00,333.20 209.76,335.27 214.31,338.05 ZM 193.02 334.49 C191.37,335.34 190.67,335.78 189.95,335.82 C189.30,335.86 188.64,335.56 187.25,334.95 C186.97,334.82 186.67,334.69 186.33,334.54 C180.86,332.16 179.35,326.37 182.98,321.75 C185.42,318.66 188.97,317.66 192.60,319.04 C196.14,320.39 197.93,322.80 197.97,326.32 C198.01,330.17 196.48,332.70 193.02,334.49 ZM 321.00 327.00 L 321.00 339.00 L 328.50 339.00 C335.33,339.00 336.00,338.82 336.00,337.00 C336.00,335.24 335.33,335.00 330.50,335.00 L 325.00 335.00 L 325.00 325.00 C325.00,315.67 324.87,315.00 323.00,315.00 C321.11,315.00 321.00,315.67 321.00,327.00 ZM 158.00 337.00 C158.00,339.77 163.81,339.73 167.37,336.93 C169.90,334.94 170.00,334.46 170.00,324.93 C170.00,315.67 169.87,315.00 168.00,315.00 C166.17,315.00 166.00,315.67 166.00,323.07 C166.00,332.70 165.03,335.00 160.96,335.00 C158.67,335.00 158.00,335.45 158.00,337.00 ZM 250.46 325.66 C248.53,327.06 243.81,327.48 242.67,326.33 C242.30,325.97 242.00,324.17 242.00,322.33 C242.00,319.05 242.07,319.00 246.48,319.00 C250.50,319.00 251.03,319.28 251.63,321.66 C252.12,323.61 251.81,324.67 250.46,325.66 ZM 306.23 330.44 C305.40,331.27 300.19,331.12 299.66,330.25 C299.08,329.28 301.98,322.00 302.96,322.00 C303.95,322.00 306.94,329.72 306.23,330.44 Z" fill="rgb(9,87,162)" data-index="0" style="opacity: 1;"></path>
<path d="M 246.72 273.25 C247.03,279.16 246.98,284.00 246.61,284.00 C246.23,284.00 245.06,281.98 244.00,279.50 C238.22,266.01 221.91,246.77 207.67,236.64 C198.86,230.38 186.39,224.03 177.15,221.12 C171.96,219.48 170.01,218.42 170.38,217.45 C170.67,216.69 176.79,194.18 183.97,167.41 C191.16,140.65 197.32,118.29 197.66,117.74 C198.05,117.11 202.32,116.92 209.03,117.24 C217.83,117.66 220.82,118.23 225.57,120.40 C233.84,124.19 239.16,128.94 242.82,135.82 C249.16,147.70 248.13,157.53 238.39,178.30 C225.17,206.50 225.00,213.60 236.95,239.00 C244.61,255.30 246.04,260.31 246.72,273.25 ZM 268.68 259.14 C266.62,261.69 262.65,267.54 259.85,272.14 L 254.76 280.50 L 255.44 276.00 C258.27,257.36 258.26,252.97 255.41,230.20 C253.22,212.63 253.55,198.89 256.37,190.89 C262.28,174.16 276.21,162.02 293.06,158.93 C300.32,157.60 312.30,158.40 313.79,160.32 C314.66,161.43 329.13,214.64 329.38,217.64 C329.46,218.53 326.56,220.08 321.50,221.87 C300.81,229.19 282.25,242.28 268.68,259.14 ZM 273.00 269.46 C270.52,271.54 266.59,275.47 264.25,278.20 C259.07,284.25 258.83,283.33 263.54,275.50 C277.63,252.11 300.54,235.88 330.75,227.88 C335.65,226.58 339.00,225.18 339.00,224.42 C339.00,223.71 333.41,202.07 326.58,176.33 C319.74,150.58 314.29,129.38 314.45,129.22 C314.61,129.05 318.49,129.96 323.06,131.23 L 331.38 133.54 L 332.55 138.02 C333.20,140.48 339.43,164.32 346.41,191.00 C353.38,217.68 359.30,240.22 359.56,241.10 C359.97,242.47 358.49,242.80 349.27,243.40 C314.61,245.63 292.31,253.26 273.00,269.46 ZM 237.94 277.84 C239.92,281.63 238.42,281.43 235.35,277.49 C231.03,271.95 217.50,261.48 209.04,257.12 C193.65,249.18 179.53,245.63 156.25,243.83 C144.54,242.92 141.00,242.33 141.00,241.27 C141.00,238.82 168.23,135.54 169.19,134.32 C170.17,133.09 184.64,129.31 185.42,130.08 C185.66,130.33 180.27,151.45 173.44,177.01 C166.60,202.58 161.01,223.96 161.01,224.53 C161.00,225.10 165.61,226.80 171.25,228.32 C196.99,235.26 218.41,249.35 231.38,267.88 C234.32,272.07 237.27,276.55 237.94,277.84 ZM 277.03 277.06 C273.99,278.63 269.92,280.88 268.00,282.05 C265.34,283.66 265.94,282.82 270.50,278.53 C277.69,271.77 289.65,264.16 299.63,260.01 C314.46,253.84 341.89,249.46 361.50,250.13 C368.00,250.35 369.48,250.13 369.38,248.95 C369.32,248.15 363.51,225.56 356.47,198.75 C349.43,171.94 343.91,149.75 344.21,149.46 C344.51,149.16 347.74,149.66 351.38,150.58 L 358.02 152.25 L 359.45 157.37 C360.24,160.19 364.27,175.32 368.40,191.00 C372.53,206.68 378.63,229.76 381.96,242.31 C385.28,254.86 388.00,265.68 388.00,266.37 C388.00,267.37 386.08,267.34 378.75,266.22 C364.67,264.08 326.23,264.12 313.00,266.29 C300.56,268.33 284.73,273.07 277.03,277.06 ZM 228.50 277.34 C231.25,279.86 233.05,281.89 232.50,281.87 C231.95,281.85 227.90,279.86 223.51,277.46 C202.00,265.71 163.44,261.33 123.23,266.08 C117.58,266.74 112.72,267.05 112.43,266.77 C111.99,266.32 141.56,152.98 142.26,152.48 C142.63,152.21 155.82,149.00 156.56,149.00 C156.92,149.00 156.93,149.75 156.58,150.66 C155.89,152.45 131.38,245.35 130.83,248.24 C130.53,249.82 131.96,250.02 146.50,250.41 C164.36,250.88 173.48,251.97 186.00,255.15 C202.41,259.31 217.24,267.06 228.50,277.34 ZM 283.32 140.93 C281.22,141.51 278.38,141.99 277.00,141.98 C273.61,141.98 265.00,137.81 262.30,134.87 C257.31,129.44 255.53,119.45 258.35,112.72 C260.25,108.17 267.12,102.32 272.19,100.92 C277.76,99.39 285.96,100.97 290.52,104.45 C297.27,109.59 300.11,121.75 296.40,129.58 C294.20,134.20 287.93,139.65 283.32,140.93 ZM 280.80 389.80 C280.14,390.46 277.21,391.00 274.30,391.00 L 269.00 391.00 L 269.00 374.00 L 273.88 374.00 C279.67,374.00 281.52,375.64 280.65,380.00 C280.31,381.69 280.48,383.00 281.02,383.00 C282.41,383.00 282.24,388.36 280.80,389.80 ZM 222.00 387.50 C222.00,389.94 221.55,391.00 220.50,391.00 C219.28,391.00 219.00,389.39 219.00,382.50 C219.00,375.61 219.28,374.00 220.50,374.00 C221.58,374.00 222.00,375.11 222.00,378.00 L 222.00 382.00 L 231.00 382.00 L 231.00 378.00 C231.00,375.11 231.42,374.00 232.50,374.00 C233.72,374.00 234.00,375.61 234.00,382.50 C234.00,389.39 233.72,391.00 232.50,391.00 C231.45,391.00 231.00,389.94 231.00,387.50 C231.00,384.02 230.98,384.00 226.50,384.00 C222.02,384.00 222.00,384.02 222.00,387.50 ZM 255.60 390.23 C255.00,390.64 253.11,390.98 251.40,390.98 C246.76,391.01 244.83,388.18 244.25,380.53 C243.83,374.97 244.00,374.00 245.38,374.00 C246.70,374.00 247.00,375.16 247.00,380.30 C247.00,386.98 248.04,389.00 251.50,389.00 C254.96,389.00 256.00,386.98 256.00,380.30 C256.00,375.37 256.33,374.00 257.50,374.00 C258.65,374.00 259.00,375.29 259.00,379.57 C259.00,385.01 257.80,388.76 255.60,390.23 ZM 272.00 386.06 C272.00,388.98 272.17,389.11 275.74,388.81 C278.47,388.58 279.58,387.99 279.84,386.62 C280.27,384.34 278.43,383.04 274.75,383.02 C272.35,383.00 272.00,383.38 272.00,386.06 ZM 272.67 381.33 C273.03,381.70 274.05,381.99 274.92,381.98 C280.10,381.93 280.40,376.68 275.24,376.19 C272.40,375.91 272.00,376.17 272.00,378.27 C272.00,379.59 272.30,380.97 272.67,381.33 Z" fill="rgb(26,43,91)" data-index="1"></path>

</g>
</svg>